# xmcd CD database file
#
# Track frame offsets:
#	150
#	29568
#	66851
#	91457
#	122660
#	158361
#
# Disc length: 2540 seconds
#
# Revision: 0
# Processed by: cddbd v1.5.1PL0 Copyright (c) Steve Scherf et al.
# Submitted via: CDex 1.51
#
DISCID=4509ea06
DTITLE=Herbie Hancock - Cantaloupe Island
DYEAR=1900
DGENRE=Jazz
TTITLE0=Cantaloupe Island
TTITLE1=Watermelon Man
TTITLE2=Driftin´
TTITLE3=Blind Man, Blind Man
TTITLE4=And What If I Don´t
TTITLE5=Maiden Voyage
EXTD=
EXTT0=
EXTT1=
EXTT2=
EXTT3=
EXTT4=
EXTT5=
PLAYORDER=
